<?xml version="1.0" encoding="UTF-8" standalone="no"?>
<svg
   xmlns:dc="http://purl.org/dc/elements/1.1/"
   xmlns:cc="http://creativecommons.org/ns#"
   xmlns:rdf="http://www.w3.org/1999/02/22-rdf-syntax-ns#"
   xmlns:svg="http://www.w3.org/2000/svg"
   xmlns="http://www.w3.org/2000/svg"
   xmlns:sodipodi="http://sodipodi.sourceforge.net/DTD/sodipodi-0.dtd"
   xmlns:inkscape="http://www.inkscape.org/namespaces/inkscape"
   viewBox="0 0 129.2 127.55"
   version="1.1"
   id="svg18"
   sodipodi:docname="membucket.svg"
   width="129.2"
   height="127.55"
   inkscape:version="0.92.2 (5c3e80d, 2017-08-06)">
  <metadata
     id="metadata24">
    <rdf:RDF>
      <cc:Work
         rdf:about="">
        <dc:format>image/svg+xml</dc:format>
        <dc:type
           rdf:resource="http://purl.org/dc/dcmitype/StillImage" />
        <dc:title>Asset 1</dc:title>
      </cc:Work>
    </rdf:RDF>
  </metadata>
  <defs
     id="defs22" />
  <sodipodi:namedview
     pagecolor="#ffffff"
     bordercolor="#666666"
     borderopacity="1"
     objecttolerance="10"
     gridtolerance="10"
     guidetolerance="10"
     inkscape:pageopacity="0"
     inkscape:pageshadow="2"
     inkscape:window-width="1920"
     inkscape:window-height="1001"
     id="namedview20"
     showgrid="false"
     fit-margin-top="20"
     fit-margin-bottom="20"
     fit-margin-right="20"
     fit-margin-left="20"
     showborder="true"
     inkscape:zoom="6.5266424"
     inkscape:cx="40.168971"
     inkscape:cy="63.779994"
     inkscape:window-x="-9"
     inkscape:window-y="-9"
     inkscape:window-maximized="1"
     inkscape:current-layer="svg18" />
  <title
     id="title10">Asset 1</title>
  <polygon
     points="29.73,80.68 29.73,32.62 23.79,29.18 23.79,70.38 17.84,66.95 11.89,63.51 5.95,60.08 5.95,15.45 8.92,13.73 11.89,12.02 20.81,6.86 26.76,10.3 29.73,12.01 32.71,13.73 35.68,15.45 38.65,17.17 41.63,18.88 44.6,20.6 47.57,18.88 50.55,17.17 53.52,15.45 56.49,13.73 59.47,12.01 62.44,10.3 68.39,6.86 77.31,12.02 80.28,13.73 83.25,15.45 83.25,60.08 77.31,63.51 71.36,66.95 65.41,70.38 65.41,29.18 59.47,32.62 59.47,80.68 65.41,77.25 77.31,70.38 83.25,66.95 89.2,63.52 89.2,12.01 86.22,10.3 80.28,6.86 77.31,5.14 74.33,3.43 71.36,1.71 68.39,0 65.41,1.71 59.47,5.15 56.49,6.86 50.55,10.3 47.57,12.01 44.6,13.73 41.63,12.01 38.65,10.3 32.71,6.86 29.73,5.15 23.79,1.71 20.81,0 17.84,1.71 14.87,3.43 11.89,5.14 8.92,6.86 2.97,10.3 0,12.01 0,63.52 5.95,66.95 11.89,70.38 23.79,77.25 "
     style="fill:#4fba6f"
     id="polygon12"
     transform="translate(20,20)" />
  <polygon
     points="77.31,56.65 77.31,18.88 74.33,17.16 71.36,15.45 68.39,13.73 65.41,15.45 62.44,17.16 56.49,20.6 53.52,22.31 50.55,24.03 47.57,25.74 47.57,87.55 53.52,84.11 53.52,29.18 56.49,27.46 59.47,25.75 62.44,24.03 65.41,22.31 68.39,20.6 71.36,22.31 71.36,60.08 "
     style="fill:#4fba6f"
     id="polygon14"
     transform="translate(20,20)" />
  <polygon
     points="20.81,13.73 17.84,15.45 14.87,17.16 11.89,18.88 11.89,56.65 17.84,60.08 17.84,22.31 20.81,20.6 23.79,22.31 23.79,22.32 26.76,24.03 29.73,25.75 32.71,27.46 35.68,29.18 35.68,84.11 41.63,87.55 41.63,25.74 38.65,24.03 35.68,22.31 32.71,20.6 26.76,17.16 23.79,15.45 "
     style="fill:#4fba6f"
     id="polygon16"
     transform="translate(20,20)" />
</svg>
